HIERARCHY
ROOT Hips
{
	OFFSET	0.00	0.00	0.00
	CHANNELS 6 Xposition Yposition Zposition Zrotation Xrotation Yrotation
	JOINT Spine
	{
		OFFSET	 0.00	0.01	 0.00
		CHANNELS 3 Zrotation Xrotation Yrotation
		JOINT Spine1
		{
			OFFSET	 0.00	 2.45913012437421	 0.00
			CHANNELS 3 Zrotation Xrotation Yrotation
            JOINT Neck
            {
                OFFSET	 0.00	 2.48462964506057	 0.00
                CHANNELS 3 Zrotation Xrotation Yrotation
                JOINT Head
                {
                    OFFSET	 0.00	 0.927524780924562	 0.00
                    CHANNELS 3 Zrotation Xrotation Yrotation
                    End Site 
                    {
                        OFFSET	 0.00	 1.14999962169752	 0.00
                    }
                }
            }
			JOINT LeftShoulder
			{
				OFFSET	 0.00	 2.48462964506057	 0.00
				CHANNELS 3 Zrotation Xrotation Yrotation
				JOINT LeftUpArm
				{
					OFFSET	 0.00	 1.24881979654096	 0.00
					CHANNELS 3 Zrotation Xrotation Yrotation
					JOINT LeftForeArm
					{
						OFFSET	 0.00	2.59758046908119	 0.00
						CHANNELS 3 Zrotation Xrotation Yrotation
						JOINT LeftHand
						{
							OFFSET	 0.00	2.45542024364365	 0.00
							CHANNELS 3 Zrotation Xrotation Yrotation
							JOINT LeftHandThumb 
							{
								OFFSET	 0.00	0.00	 0.00
								CHANNELS 3 Zrotation Xrotation Yrotation
								End Site
								{
									OFFSET	 0.00	0.00	1.00000003353624
								}
							}
							JOINT L_Wrist_End 
							{
								OFFSET	 0.00	0.99999967115358	 0.00
								CHANNELS 3 Zrotation Xrotation Yrotation
								End Site 
								{
									OFFSET	 0.00	 0.00	 0.00
								}
							}
						}
					}
				}
			}
			JOINT RightShoulder
			{
				OFFSET	 0.00	 2.48462964506057	 0.00
				CHANNELS 3 Zrotation Xrotation Yrotation
				JOINT RightUpArm
				{
					OFFSET	 0.00	 1.24881979654096	 0.00
					CHANNELS 3 Zrotation Xrotation Yrotation
					JOINT RightForeArm
					{
						OFFSET	 0.00	2.59758046908119	 0.00
						CHANNELS 3 Zrotation Xrotation Yrotation
						JOINT RightHand
						{
							OFFSET	 0.00	2.45542024364365	 0.00
							CHANNELS 3 Zrotation Xrotation Yrotation
							JOINT RightHandThumb 
							{
								OFFSET	 0.00	0.00	 0.00
								CHANNELS 3 Zrotation Xrotation Yrotation
								End Site
								{
									OFFSET	 0.00	0.00	1.00000003353624
								}
							}
							JOINT R_Wrist_End 
							{
								OFFSET	 0.00	0.99999967115358	 0.00
								CHANNELS 3 Zrotation Xrotation Yrotation
								End Site 
								{
									OFFSET	 0.00	 0.00	 0.00
								}
							}
						}
					}
				}
			}
		}
	}
	JOINT LeftUpLeg
	{
		OFFSET	 1.2719394002717	 0.00	 0.00
		CHANNELS 3 Zrotation Xrotation Yrotation
		JOINT LeftLowLeg
		{
			OFFSET	 0.00	-4.3429100912261	 0.00
			CHANNELS 3 Zrotation Xrotation Yrotation
			JOINT LeftFoot
			{
				OFFSET	 0.00	-4.48767017425826	 0.00
				CHANNELS 3 Zrotation Xrotation Yrotation
				JOINT LeftToeBase
                {
                    OFFSET	 0.00	0.00	 1.51507020887566
                    CHANNELS 3 Zrotation Xrotation Yrotation
                    End Site 
                    {
                        OFFSET	 0.00	0.00	 0.75000010571191
                    }
                }
			}
		}
	}
	JOINT RightUpLeg
	{
		OFFSET	 -1.2719393604653	 0.00	 0.00
		CHANNELS 3 Zrotation Xrotation Yrotation
		JOINT RightLowLeg
		{
			OFFSET	 0.00	-4.3429100912261	 0.00
			CHANNELS 3 Zrotation Xrotation Yrotation
			JOINT RightFoot
			{
				OFFSET	 0.00	-4.48767017425826	 0.00
				CHANNELS 3 Zrotation Xrotation Yrotation
				JOINT RightToeBase
                {
                    OFFSET	 0.00	0.00	 1.51507020887566
                    CHANNELS 3 Zrotation Xrotation Yrotation
                    End Site 
                    {
                        OFFSET	 0.00	0.00	 0.749999965609858
                    }
                }   
			}
		}
	}
}
MOTION 
Frames:	16 
Frame Time: 0.02 
 -3.5112399291992187 -16.680999755859375 9.295059814453126 -89.4682 83.4064 -1595.4 0.778609 -15.8155 -0.380382 -7.0797 9.17812 5.25875 -17.5584 35.7636 383.43 109.529 -82.2959 483.612 -112.1936 -1.00736 367.259 -34.1063 11.2646 46.1371 0.0 25.0448 0.0 39.9932 -3.30959 18.9248 0.0 0.0 0.0 0.0 0.0 0.0 120.383896 -6.14979 -361.692 47.8582 -2.23683 -370.149 0.0 19.1021 0.0 6.63811 -6.53035 18.0787 0.0 0.0 0.0 0.0 0.0 0.0 -5.90657 -10.0979 -731.353 0.0 16.488 0.0 -2.19751 0.85719967 12.8675 0.0 -33.569 0.0 2.45046 -11.6356 12.0257 0.0 23.9785 0.0 29.7552 -17.3283 -6.31227 0.0 -18.39034 0.0 
  -3.4896701049804686 -16.7043994140625 9.300750122070312 -84.3781 83.2301 -1599.3 0.616745 -15.8003 -0.989111 -6.68224 9.63193 4.82099 -16.7495 32.9892 382.561 118.603 -82.6255 492.902 -111.872604 -0.580335 366.645 -33.3665 11.7619 45.3247 0.0 24.9586 0.0 43.3794 -3.99182 19.0568 0.0 0.0 0.0 0.0 0.0 0.0 120.1456 -6.00535 -361.468 48.1411 -2.47227 -369.928 0.0 19.4401 0.0 6.50581 -6.36662 18.7727 0.0 0.0 0.0 0.0 0.0 0.0 -5.46216 -10.6505 -732.483 0.0 16.7913 0.0 -2.48995 0.7435999 12.6424 0.0 -33.546402 0.0 2.72274 -11.2703 10.5653 0.0 22.7994 0.0 29.7951 -17.071999 -6.23844 0.0 -18.59869 0.0 
  -3.4717001342773437 -16.7252001953125 9.302470092773438 -84.3357 83.3356 -1599.33 0.37784 -15.2468 -1.03143 -6.34046 9.79568 4.98784 -16.2438 30.748 382.061 125.349 -82.7622 499.758 -111.6471 -0.134759 366.845 -32.617 12.5884 43.8645 0.0 24.4919 0.0 45.0807 -5.26963 18.5096 0.0 0.0 0.0 0.0 0.0 0.0 119.8057 -5.75743 -361.947 48.3903 -2.25747 -369.624 0.0 19.7204 0.0 6.25797 -6.47986 18.7305 0.0 0.0 0.0 0.0 0.0 0.0 -5.26791 -10.5712 -732.433 0.0 16.9021 0.0 -2.62048 0.7056999 12.6094 0.0 -33.556602 0.0 2.8916 -10.9702 10.5118 0.0 22.4916 0.0 29.7439 -17.095299 -6.28641 0.0 -18.45346 0.0 
  -3.4478298950195314 -16.74469970703125 9.302940063476562 -83.4679 83.22 -1600.12 0.185699 -15.0656 -1.10519 -6.08615 9.84701 5.06217 -15.9096 29.2912 381.811 130.178 -82.6801 504.643 -111.4583 0.284037 366.968 -32.0179 13.1741 42.2883 0.0 23.664 0.0 45.9464 -6.64656 19.6019 0.0 0.0 0.0 0.0 0.0 0.0 119.5463 -5.58685 -362.251 48.5745 -2.06342 -369.983 0.0 19.8563 0.0 5.63814 -6.64729 18.6522 0.0 0.0 0.0 0.0 0.0 0.0 -5.09966 -10.7029 -732.583 0.0 17.0356 0.0 -2.62516 0.63309956 12.7933 0.0 -33.5095 0.0 3.08155 -10.8705 10.5255 0.0 22.2026 0.0 29.6942 -17.068298 -6.32744 0.0 -18.44428 0.0 
  -3.4184799194335938 -16.760799560546875 9.301840209960938 -82.9296 83.2385 -1600.66 0.0797941 -14.9387 -1.13591 -5.94478 9.93657 5.12286 -15.7583 28.3933 381.877 132.741 -82.4655 507.124 -111.2752 0.681832 367.075 -31.6228 13.5938 40.4243 0.0 22.5865 0.0 45.5748 -7.84055 18.9359 0.0 0.0 0.0 0.0 0.0 0.0 119.3929 -5.46173 -362.34 48.6197 -1.89454 -370.331 0.0 19.8686 0.0 5.5352 -6.642 18.2382 0.0 0.0 0.0 0.0 0.0 0.0 -4.9681 -10.7195 -733.048 0.0 17.3366 0.0 -2.84563 0.4197998 13.2074 0.0 -33.514297 0.0 3.29217 -10.6732 10.428 0.0 22.0344 0.0 29.5387 -16.9749 -6.37822 0.0 -18.27157 0.0 
  -3.3836700439453127 -16.775799560546876 9.298519897460938 -82.8986 83.2382 -1600.89 -0.0358094 -14.9399 -1.11253 -5.87852 9.95901 5.22798 -15.3178 28.0734 381.82 131.798 -82.3039 506.445 -111.1313 1.00244 367.088 -31.4539 13.8332 37.8425 0.0 21.247 0.0 43.583 -9.74467 17.9977 0.0 0.0 0.0 0.0 0.0 0.0 119.3519 -5.32946 -362.425 48.5534 -1.69136 -370.73 0.0 19.8217 0.0 5.42937 -6.65177 17.1732 0.0 0.0 0.0 0.0 0.0 0.0 -4.85547 -10.6783 -733.256 0.0 17.6404 0.0 -2.99837 0.108400345 13.6419 0.0 -33.3593 0.0 3.50702 -10.4769 10.646 0.0 21.8875 0.0 29.3342 -16.8645 -6.54401 0.0 -18.16781 0.0 
  -3.3457501220703123 -16.7852001953125 9.294149780273438 -82.7292 83.2846 -1601.3 0.0479841 -15.0978 -1.01529 -6.04074 10.0875 5.28132 -15.0816 28.1237 382.126 129.351 -82.0404 503.965 -111.0339 1.23669 366.876 -31.4309 13.9247 34.3651 0.0 19.7933 0.0 39.1594 -13.1275 14.0525 0.0 0.0 0.0 0.0 0.0 0.0 119.4671 -5.17735 -362.549 48.3785 -1.35954 -371.0 0.0 19.6797 0.0 5.39181 -6.81018 16.295 0.0 0.0 0.0 0.0 0.0 0.0 -4.74931 -10.6032 -733.582 0.0 18.0488 0.0 -3.17375 -0.31330013 14.1794 0.0 -33.168503 0.0 3.70615 -10.246 10.6699 0.0 21.7817 0.0 28.742 -16.5611 -6.78981 0.0 -18.41299 0.0 
  -3.3001800537109376 -16.7918994140625 9.28802978515625 -83.0638 83.4314 -1601.28 0.199579 -15.3117 -0.855086 -6.423 10.2498 5.33777 -14.571 28.5845 382.374 124.69 -81.7252 499.366 -110.6369 1.51405 366.488 -31.9409 13.5631 29.7319 0.0 18.3954 0.0 34.119 -17.6085 7.49344 0.0 0.0 0.0 0.0 0.0 0.0 119.735 -5.09573 -362.57 48.1667 -0.999004 -371.196 0.0 19.4287 0.0 5.40786 -6.6151 16.0066 0.0 0.0 0.0 0.0 0.0 0.0 -4.65385 -10.4302 -733.676 0.0 18.6073 0.0 -3.41391 -0.85859966 14.6232 0.0 -32.9 0.0 3.90123 -9.89707 10.7367 0.0 21.7598 0.0 28.1715 -16.2951 -6.98421 0.0 -18.17325 0.0 
  -3.2573699951171875 -16.794100341796874 9.281300048828125 -84.3114 83.8823 -1600.69 0.537081 -15.1347 -0.519707 -6.76612 10.1888 5.44003 -14.5013 29.4131 382.914 119.933 -81.3688 494.599 -110.3019 1.46673 366.26 -32.7177 13.3059 25.4096 0.0 16.8386 0.0 31.2141 -18.7297 10.5008 0.0 0.0 0.0 0.0 0.0 0.0 119.9487 -5.01532 -362.405 47.9275 -0.773354 -371.351 0.0 19.1305 0.0 5.40987 -6.62689 15.1391 0.0 0.0 0.0 0.0 0.0 0.0 -4.58729 -9.98925 -733.6 0.0 19.353 0.0 -3.56074 -1.4906006 15.236 0.0 -32.7185 0.0 4.10329 -9.33745 10.9529 0.0 21.8674 0.0 27.3164 -15.812401 -7.19786 0.0 -18.21187 0.0 
  -3.2142098999023436 -16.790699462890625 9.271019897460938 -85.5247 83.9071 -1600.11 0.774659 -15.3228 -0.258429 -6.97095 9.9386 5.51375 -15.1103 30.6588 383.905 116.572 -80.9077 490.929 -110.190704 1.19178 366.014 -33.3346 13.0993 22.9984 0.0 15.1669 0.0 29.5851 -17.6923 13.7132 0.0 0.0 0.0 0.0 0.0 0.0 119.9288 -5.04671 -362.391 47.8152 -0.398605 -371.347 0.0 18.7755 0.0 5.46414 -6.67289 14.6889 0.0 0.0 0.0 0.0 0.0 0.0 -4.76333 -10.1427 -733.781 0.0 20.5435 0.0 -3.73635 -2.1581993 15.909 0.0 -32.6594 0.0 4.11335 -9.2511 10.91 0.0 22.164 0.0 26.9929 -15.5378 -6.82564 0.0 -18.19016 0.0 
  -3.1713101196289064 -16.79780029296875 9.258519897460937 -83.2854 84.2105 -1602.34 1.00846 -15.2471 -0.361596 -6.79415 9.62229 5.22952 -15.8656 31.9324 384.962 113.399 -80.4614 487.476 -109.9889 0.925399 365.75 -34.1178 12.8543 21.3118 0.0 13.7298 0.0 29.5422 -15.9087 16.7918 0.0 0.0 0.0 0.0 0.0 0.0 119.8666 -5.06382 -362.063 47.7345 -0.212346 -371.239 0.0 18.3826 0.0 5.66235 -6.7342 14.298 0.0 0.0 0.0 0.0 0.0 0.0 -4.62311 -10.6983 -734.304 0.0 22.6917 0.0 -4.15569 -3.1226006 16.1067 0.0 -32.6765 0.0 4.50433 -9.3047 9.38537 0.0 23.0176 0.0 25.8971 -15.059 -6.57349 0.0 -18.21524 0.0 
  -3.1209100341796874 -16.79719970703125 9.244990234375 -80.2472 84.3844 -1605.68 1.3582 -15.44 -0.214441 -6.52967 9.386 5.17447 -16.9159 33.2605 386.146 110.21 -80.076 484.17 -109.7863 0.780354 365.611 -34.7437 12.4515 20.9313 0.0 13.0641 0.0 28.7309 -16.7726 15.3536 0.0 0.0 0.0 0.0 0.0 0.0 119.6809 -5.10551 -361.753 47.6891 -0.130607 -371.011 0.0 18.0577 0.0 5.80984 -6.86047 14.1123 0.0 0.0 0.0 0.0 0.0 0.0 -4.60778 -11.4753 -734.97 0.0 25.2641 0.0 -4.87544 -4.1677 16.6976 0.0 -32.6394 0.0 4.99015 -9.0342 9.26651 0.0 23.1596 0.0 25.0912 -14.9083 -6.7444 0.0 -18.29255 0.0 
  -3.078909912109375 -16.805999755859375 9.22780029296875 -73.825 84.7904 -1611.75 1.68837 -15.0122 -0.388791 -5.94944 8.86385 4.76782 -17.8971 34.164 387.146 106.892 -79.8623 481.081 -109.485596 0.667621 365.424 -35.4585 11.8698 20.8306 0.0 12.8513 0.0 28.5171 -18.9744 11.872 0.0 0.0 0.0 0.0 0.0 0.0 119.3958 -5.16293 -361.111 47.7142 -0.298734 -370.719 0.0 17.7759 0.0 5.92867 -6.99932 13.9921 0.0 0.0 0.0 0.0 0.0 0.0 -4.27898 -12.7825 -735.125 0.0 28.868 0.0 -5.73838 -5.0909004 16.1587 0.0 -32.9224 0.0 5.78711 -8.25584 9.26953 0.0 22.6585 0.0 24.9288 -14.991501 -7.11918 0.0 -18.34803 0.0 
  -3.0639599609375 -16.83469970703125 9.2114599609375 -62.3256 84.7136 -1623.79 2.29149 -14.064 0.0352524 -4.90394 7.66267 4.80522 -20.3815 34.2528 389.447 108.34 -79.6066 482.27 -109.3229 0.662742 365.168 -36.2205 11.3699 20.036 0.0 12.5931 0.0 27.9572 -19.6258 10.2422 0.0 0.0 0.0 0.0 0.0 0.0 119.194595 -5.35116 -360.464 47.472 -0.328654 -370.328 0.0 17.5747 0.0 5.94635 -7.06331 13.9034 0.0 0.0 0.0 0.0 0.0 0.0 -3.17447 -15.1602 -733.286 0.0 33.3105 0.0 -6.77966 -5.7446003 14.7721 0.0 -33.5895 0.0 7.22261 -8.27795 10.3935 0.0 22.4507 0.0 24.3025 -14.6905 -8.15908 0.0 -18.47281 0.0 
  -3.0469000244140627 -16.8522998046875 9.190650024414062 -54.2955 83.6481 -1631.28 2.56744 -13.9531 -0.124807 -3.55514 6.59576 4.49408 -22.5522 33.5455 391.255 107.701 -79.721 482.704 -108.9049 0.7113 365.033 -37.512 10.9559 18.9827 0.0 12.3776 0.0 27.0906 -20.4865 10.3349 0.0 0.0 0.0 0.0 0.0 0.0 118.4552 -5.62022 -359.714 47.5608 -0.489551 -370.022 0.0 17.5723 0.0 5.70217 -7.18166 13.5108 0.0 0.0 0.0 0.0 0.0 0.0 -2.48118 -18.9835 -732.077 0.0 38.6139 0.0 -8.95007 -5.857401 12.9644 0.0 -34.554398 0.0 8.51992 -9.0302 11.5016 0.0 22.3551 0.0 23.9631 -15.125401 -9.67355 0.0 -18.44268 0.0 
  -3.0332400512695314 -16.864000244140627 9.17281982421875 -46.8161 82.764 -1637.67 3.00121 -13.6254 -0.405484 -2.25836 5.96985 4.00633 -25.3624 31.5387 393.866 108.223 -79.8744 484.168 -108.4371 0.825247 365.742 -38.6819 11.2717 17.4709 0.0 12.2732 0.0 26.5665 -21.0088 9.70977 0.0 0.0 0.0 0.0 0.0 0.0 117.6438 -5.88513 -360.037 47.6468 0.278547 -369.202 0.0 17.7189 0.0 5.07473 -7.1155 13.3455 0.0 0.0 0.0 0.0 0.0 0.0 -1.95599 -23.0079 -731.554 0.0 44.5472 0.0 -8.36039 -4.0102997 13.0083 0.0 -37.0024 0.0 9.50693 -9.22904 10.7945 0.0 21.57 0.0 23.6374 -14.9652 -10.141 0.0 -18.49441 0.0 
